<?xml version="1.0" ?><!DOCTYPE svg  PUBLIC '-//W3C//DTD SVG 1.1//EN'  'http://www.w3.org/Graphics/SVG/1.1/DTD/svg11.dtd'><svg height="32px" id="Layer_2" style="enable-background:new 0 0 32 32;" version="1.1" viewBox="0 0 32 32" width="32px" xml:space="preserve" xmlns="http://www.w3.org/2000/svg" xmlns:xlink="http://www.w3.org/1999/xlink"><style type="text/css">
<![CDATA[
	.st0{fill:none;stroke:#545454;stroke-width:0.5;stroke-miterlimit:10;}
	.st1{fill:none;stroke:#545454;stroke-miterlimit:10;}
	.st2{fill:#545454;}
	.st3{fill:none;stroke:#545454;stroke-linecap:round;stroke-miterlimit:10;}
	.st4{fill-rule:evenodd;clip-rule:evenodd;fill:none;stroke:#545454;stroke-width:0.5;stroke-miterlimit:10;}
]]>
</style><g><g><path class="st2" d="M20.984,6.246V9.99h-1.792c-1.376,0-1.536,0.832-1.536,1.695v1.312h3.328l-0.32,4.062h-3.008v8.896h-4.064    v-8.896h-2.335v-4.062h2.335v-2.977c0-2.432,1.377-3.775,4.064-3.775H20.984 M21.984,5.246h-1h-3.328    c-3.219,0-5.064,1.74-5.064,4.775v1.977h-1.335h-1v1v4.062v1h1h1.335v7.896v1h1h4.064h1v-1v-7.896h2.008h0.924l0.073-0.922    l0.32-4.062l0.085-1.078h-1.082h-2.328v-0.312c0-0.695,0.03-0.695,0.536-0.695h1.792h1v-1V6.246V5.246L21.984,5.246z"/></g></g></svg>