<?xml version="1.0" ?><!DOCTYPE svg  PUBLIC '-//W3C//DTD SVG 1.1//EN'  'http://www.w3.org/Graphics/SVG/1.1/DTD/svg11.dtd'><svg height="32px" id="Layer_2" style="enable-background:new 0 0 32 32;" version="1.1" viewBox="0 0 32 32" width="32px" xml:space="preserve" xmlns="http://www.w3.org/2000/svg" xmlns:xlink="http://www.w3.org/1999/xlink"><style type="text/css">
<![CDATA[
	.st0{fill:none;stroke:#545454;stroke-width:0.5;stroke-miterlimit:10;}
	.st1{fill:none;stroke:#545454;stroke-miterlimit:10;}
	.st2{fill:#545454;}
	.st3{fill:none;stroke:#545454;stroke-linecap:round;stroke-miterlimit:10;}
	.st4{fill-rule:evenodd;clip-rule:evenodd;fill:none;stroke:#545454;stroke-width:0.5;stroke-miterlimit:10;}
]]>
</style><g><g><path class="st2" d="M20.58,8.313c1.157,0,2.202,0.488,2.936,1.27c0.917-0.181,1.777-0.515,2.555-0.976    c-0.301,0.938-0.938,1.728-1.769,2.225c0.813-0.097,1.589-0.313,2.311-0.633c-0.54,0.807-1.222,1.515-2.008,2.082    c0.008,0.173,0.012,0.346,0.012,0.521c0,5.315-4.046,11.444-11.444,11.444c-2.271,0-4.386-0.666-6.166-1.808    c0.315,0.037,0.635,0.057,0.96,0.057c1.885,0,3.619-0.644,4.995-1.722c-1.76-0.032-3.245-1.195-3.757-2.793    c0.245,0.046,0.497,0.071,0.757,0.071c0.366,0,0.722-0.049,1.06-0.141c-1.84-0.37-3.227-1.995-3.227-3.944    c0-0.017,0-0.034,0-0.051c0.542,0.302,1.163,0.482,1.822,0.503c-1.079-0.721-1.79-1.952-1.79-3.348    c0-0.737,0.199-1.428,0.545-2.022c1.984,2.434,4.947,4.035,8.291,4.203c-0.069-0.295-0.104-0.602-0.104-0.917    C16.558,10.114,18.358,8.313,20.58,8.313 M27.827,6.403l-2.267,1.344c-0.55,0.326-1.137,0.574-1.751,0.741    c-0.898-0.752-2.047-1.174-3.229-1.174c-2.701,0-4.911,2.143-5.019,4.817c-2.501-0.409-4.794-1.725-6.415-3.714l-0.914-1.12    l-0.726,1.25c-0.445,0.766-0.681,1.639-0.681,2.525c0,0.427,0.054,0.846,0.157,1.249l-0.189-0.105v1.701v0.051    c0,1.148,0.394,2.225,1.062,3.084l0.396,1.234c0.38,1.187,1.173,2.156,2.19,2.77c-0.783,0.291-1.616,0.44-2.477,0.44    c-0.278,0-0.562-0.017-0.843-0.05l-4.309-0.507l3.651,2.342c2.006,1.286,4.324,1.966,6.706,1.966    c7.79,0,12.444-6.327,12.444-12.444c0-0.012,0-0.024,0-0.037c0.704-0.574,1.317-1.248,1.827-2.01l1.919-2.867l-2.344,1.038    c0.001-0.005,0.003-0.009,0.004-0.014L27.827,6.403L27.827,6.403z"/></g></g></svg>